# Blender v2.93.5 OBJ File: ''
# www.blender.org
mtllib bush.mtl
o Mesh_0
v 0.091548 -0.015531 -0.076450
v 0.131956 0.011905 -0.036042
v 0.092586 -0.004054 0.022130
v 0.092586 -0.004054 0.022130
v 0.003019 -0.037840 0.022130
v 0.091548 -0.015531 -0.076450
v 0.003019 -0.037840 0.022130
v 0.003019 -0.004054 -0.067437
v 0.091548 -0.015531 -0.076450
v 0.051140 0.011905 -0.116858
v 0.091548 -0.015531 -0.076450
v 0.003019 -0.004054 -0.067437
v 0.003019 -0.004054 -0.067437
v 0.003019 0.085513 -0.101223
v 0.051140 0.011905 -0.116858
v 0.042286 0.052313 -0.125712
v 0.051140 0.011905 -0.116858
v 0.003019 0.085513 -0.101223
v 0.051140 0.092721 -0.116858
v 0.042286 0.052313 -0.125712
v 0.003019 0.085513 -0.101223
v 0.003019 0.085513 -0.101223
v 0.076488 0.158982 -0.051339
v 0.051140 0.092721 -0.116858
v 0.091548 0.120157 -0.076450
v 0.051140 0.092721 -0.116858
v 0.076488 0.158982 -0.051339
v 0.076488 0.158982 -0.051339
v 0.126372 0.085513 0.022130
v 0.091548 0.120157 -0.076450
v 0.131956 0.092721 -0.036042
v 0.091548 0.120157 -0.076450
v 0.126372 0.085513 0.022130
v 0.140810 0.052313 -0.027188
v 0.131956 0.092721 -0.036042
v 0.126372 0.085513 0.022130
v 0.126372 0.085513 0.022130
v 0.092586 -0.004054 0.022130
v 0.140810 0.052313 -0.027188
v 0.131956 0.011905 -0.036042
v 0.140810 0.052313 -0.027188
v 0.092586 -0.004054 0.022130
v 0.003019 -0.004054 -0.067437
v 0.003019 -0.037840 0.022130
v -0.093560 -0.016808 -0.063086
v -0.093560 -0.044401 0.010060
v -0.093560 -0.016808 -0.063086
v 0.003019 -0.037840 0.022130
v -0.045271 -0.033639 0.117710
v -0.093560 -0.044401 0.010060
v 0.003019 -0.037840 0.022130
v 0.003019 -0.037840 0.022130
v 0.076488 0.012044 0.095599
v -0.045271 -0.033639 0.117710
v -0.004863 -0.006203 0.158118
v -0.045271 -0.033639 0.117710
v 0.076488 0.012044 0.095599
v 0.076488 0.012044 0.095599
v 0.003019 0.085513 0.145483
v -0.004863 -0.006203 0.158118
v 0.003991 0.034205 0.166972
v -0.004863 -0.006203 0.158118
v 0.003019 0.085513 0.145483
v -0.004863 0.074613 0.158118
v 0.003991 0.034205 0.166972
v 0.003019 0.085513 0.145483
v 0.003019 0.085513 0.145483
v -0.070450 0.158982 0.095599
v -0.004863 0.074613 0.158118
v -0.045271 0.083467 0.166972
v -0.004863 0.074613 0.158118
v -0.070450 0.158982 0.095599
v -0.085679 0.074613 0.158118
v -0.045271 0.083467 0.166972
v -0.070450 0.158982 0.095599
v -0.094533 0.083467 0.117710
v -0.085679 0.074613 0.158118
v -0.070450 0.158982 0.095599
v -0.153560 0.116338 0.070060
v -0.094533 0.083467 0.117710
v -0.070450 0.158982 0.095599
v -0.093560 0.157077 0.010060
v -0.153560 0.116338 0.070060
v -0.070450 0.158982 0.095599
v -0.070450 0.158982 0.095599
v -0.086548 0.175080 0.022130
v -0.093560 0.157077 0.010060
v -0.086548 0.175080 0.022130
v -0.070450 0.158982 -0.051339
v -0.093560 0.157077 0.010060
v -0.093560 0.129484 -0.063086
v -0.093560 0.157077 0.010060
v -0.070450 0.158982 -0.051339
v -0.070450 0.158982 -0.051339
v 0.003019 0.085513 -0.101223
v -0.093560 0.129484 -0.063086
v -0.093560 0.056338 -0.090678
v -0.093560 0.129484 -0.063086
v 0.003019 0.085513 -0.101223
v 0.003019 0.085513 -0.101223
v 0.003019 -0.004054 -0.067437
v -0.093560 0.056338 -0.090678
v -0.093560 -0.016808 -0.063086
v -0.093560 0.056338 -0.090678
v 0.003019 -0.004054 -0.067437
v -0.166706 0.056338 0.083206
v -0.153560 -0.003662 0.070060
v -0.113115 0.034205 0.117710
v -0.094533 -0.015057 0.117710
v -0.113115 0.034205 0.117710
v -0.153560 -0.003662 0.070060
v -0.153560 -0.003662 0.070060
v -0.093560 -0.044401 0.010060
v -0.094533 -0.015057 0.117710
v -0.045271 -0.033639 0.117710
v -0.094533 -0.015057 0.117710
v -0.093560 -0.044401 0.010060
v -0.153560 0.116338 0.070060
v -0.166706 0.056338 0.083206
v -0.094533 0.083467 0.117710
v -0.113115 0.034205 0.117710
v -0.094533 0.083467 0.117710
v -0.166706 0.056338 0.083206
v -0.113115 0.034205 0.117710
v -0.094533 -0.015057 0.117710
v -0.085679 -0.006203 0.158118
v -0.113115 0.034205 0.117710
v -0.094533 0.034205 0.166972
v -0.085679 0.074613 0.158118
v -0.045271 -0.033639 0.117710
v -0.045271 -0.015057 0.166972
v -0.085679 -0.006203 0.158118
v -0.045271 0.034205 0.185554
v -0.094533 0.034205 0.166972
v -0.085679 -0.006203 0.158118
v -0.045271 0.034205 0.185554
v -0.045271 -0.015057 0.166972
v -0.004863 -0.006203 0.158118
v -0.004863 0.074613 0.158118
v -0.045271 0.083467 0.166972
v -0.045271 0.034205 0.185554
v -0.085679 0.074613 0.158118
v -0.094533 0.034205 0.166972
v -0.045271 0.034205 0.185554
v -0.085679 -0.006203 0.158118
v -0.094533 0.034205 0.166972
v -0.113115 0.034205 0.117710
v -0.085679 0.074613 0.158118
v -0.094533 0.083467 0.117710
v -0.113115 0.034205 0.117710
v -0.004863 -0.006203 0.158118
v -0.045271 -0.015057 0.166972
v -0.045271 -0.033639 0.117710
v -0.085679 -0.006203 0.158118
v -0.094533 -0.015057 0.117710
v -0.045271 -0.033639 0.117710
v -0.085679 -0.006203 0.158118
v -0.045271 -0.015057 0.166972
v -0.045271 0.034205 0.185554
v -0.004863 -0.006203 0.158118
v 0.003991 0.034205 0.166972
v -0.045271 0.034205 0.185554
v -0.045271 0.034205 0.185554
v 0.003991 0.034205 0.166972
v -0.004863 0.074613 0.158118
v -0.045271 0.034205 0.185554
v -0.045271 0.083467 0.166972
v -0.085679 0.074613 0.158118
v -0.194299 0.056338 0.010060
v -0.166706 -0.016808 0.010060
v -0.153560 -0.003662 0.070060
v -0.194299 0.056338 0.010060
v -0.166706 0.056338 0.083206
v -0.153560 0.116338 0.070060
v -0.153560 0.116338 -0.049940
v -0.166706 0.056338 -0.063086
v -0.194299 0.056338 0.010060
v -0.153560 -0.003662 -0.049940
v -0.166706 -0.016808 0.010060
v -0.194299 0.056338 0.010060
v -0.153560 -0.003662 -0.049940
v -0.093560 -0.016808 -0.063086
v -0.093560 -0.044401 0.010060
v -0.093560 0.056338 -0.090678
v -0.093560 -0.016808 -0.063086
v -0.153560 -0.003662 -0.049940
v -0.093560 0.056338 -0.090678
v -0.166706 0.056338 -0.063086
v -0.153560 0.116338 -0.049940
v -0.093560 0.157077 0.010060
v -0.166706 0.129484 0.010060
v -0.153560 0.116338 0.070060
v -0.153560 0.116338 -0.049940
v -0.166706 0.129484 0.010060
v -0.093560 0.157077 0.010060
v -0.153560 -0.003662 0.070060
v -0.166706 0.056338 0.083206
v -0.194299 0.056338 0.010060
v -0.153560 0.116338 0.070060
v -0.166706 0.129484 0.010060
v -0.194299 0.056338 0.010060
v -0.194299 0.056338 0.010060
v -0.166706 0.129484 0.010060
v -0.153560 0.116338 -0.049940
v -0.194299 0.056338 0.010060
v -0.166706 0.056338 -0.063086
v -0.153560 -0.003662 -0.049940
v -0.153560 -0.003662 0.070060
v -0.166706 -0.016808 0.010060
v -0.093560 -0.044401 0.010060
v -0.093560 -0.044401 0.010060
v -0.166706 -0.016808 0.010060
v -0.153560 -0.003662 -0.049940
v -0.153560 -0.003662 -0.049940
v -0.166706 0.056338 -0.063086
v -0.093560 0.056338 -0.090678
v -0.153560 0.116338 -0.049940
v -0.093560 0.129484 -0.063086
v -0.093560 0.056338 -0.090678
v -0.093560 0.157077 0.010060
v -0.093560 0.129484 -0.063086
v -0.153560 0.116338 -0.049940
v 0.003019 -0.037840 0.022130
v 0.092586 -0.004054 0.022130
v 0.076488 0.012044 0.095599
v 0.076488 0.158982 0.095599
v 0.003019 0.175080 0.111697
v 0.003019 0.085513 0.145483
v 0.126372 0.085513 0.022130
v 0.092586 0.175080 0.022130
v 0.076488 0.158982 0.095599
v 0.126372 0.085513 0.022130
v 0.092586 0.085513 0.111697
v 0.076488 0.012044 0.095599
v 0.076488 0.158982 -0.051339
v 0.092586 0.175080 0.022130
v 0.126372 0.085513 0.022130
v 0.003019 0.208866 0.022130
v -0.086548 0.175080 0.022130
v -0.070450 0.158982 0.095599
v 0.003019 0.208866 0.022130
v 0.003019 0.175080 0.111697
v 0.076488 0.158982 0.095599
v 0.076488 0.158982 -0.051339
v 0.003019 0.175080 -0.067437
v 0.003019 0.208866 0.022130
v -0.070450 0.158982 -0.051339
v -0.086548 0.175080 0.022130
v 0.003019 0.208866 0.022130
v 0.076488 0.012044 0.095599
v 0.092586 0.085513 0.111697
v 0.003019 0.085513 0.145483
v 0.003019 0.085513 0.145483
v 0.092586 0.085513 0.111697
v 0.076488 0.158982 0.095599
v 0.003019 0.085513 0.145483
v 0.003019 0.175080 0.111697
v -0.070450 0.158982 0.095599
v 0.076488 0.158982 0.095599
v 0.092586 0.085513 0.111697
v 0.126372 0.085513 0.022130
v 0.076488 0.012044 0.095599
v 0.092586 -0.004054 0.022130
v 0.126372 0.085513 0.022130
v -0.070450 0.158982 -0.051339
v 0.003019 0.175080 -0.067437
v 0.003019 0.085513 -0.101223
v 0.003019 0.085513 -0.101223
v 0.003019 0.175080 -0.067437
v 0.076488 0.158982 -0.051339
v -0.070450 0.158982 0.095599
v 0.003019 0.175080 0.111697
v 0.003019 0.208866 0.022130
v 0.076488 0.158982 0.095599
v 0.092586 0.175080 0.022130
v 0.003019 0.208866 0.022130
v 0.003019 0.208866 0.022130
v 0.092586 0.175080 0.022130
v 0.076488 0.158982 -0.051339
v 0.003019 0.208866 0.022130
v 0.003019 0.175080 -0.067437
v -0.070450 0.158982 -0.051339
v 0.091548 -0.015531 -0.076450
v 0.140810 0.003051 -0.076450
v 0.131956 0.011905 -0.036042
v 0.051140 0.011905 -0.116858
v 0.091548 0.003051 -0.125712
v 0.091548 -0.015531 -0.076450
v 0.131956 0.011905 -0.116858
v 0.140810 0.003051 -0.076450
v 0.091548 -0.015531 -0.076450
v 0.159392 0.052313 -0.076450
v 0.140810 0.101575 -0.076450
v 0.131956 0.092721 -0.036042
v 0.159392 0.052313 -0.076450
v 0.140810 0.052313 -0.027188
v 0.131956 0.011905 -0.036042
v 0.131956 0.011905 -0.116858
v 0.140810 0.052313 -0.125712
v 0.159392 0.052313 -0.076450
v 0.131956 0.092721 -0.116858
v 0.140810 0.101575 -0.076450
v 0.159392 0.052313 -0.076450
v 0.091548 0.052313 -0.144294
v 0.091548 0.003051 -0.125712
v 0.051140 0.011905 -0.116858
v 0.091548 0.052313 -0.144294
v 0.042286 0.052313 -0.125712
v 0.051140 0.092721 -0.116858
v 0.131956 0.092721 -0.116858
v 0.140810 0.052313 -0.125712
v 0.091548 0.052313 -0.144294
v 0.131956 0.011905 -0.116858
v 0.091548 0.003051 -0.125712
v 0.091548 0.052313 -0.144294
v 0.131956 0.092721 -0.116858
v 0.091548 0.101575 -0.125712
v 0.091548 0.120157 -0.076450
v 0.091548 -0.015531 -0.076450
v 0.091548 0.003051 -0.125712
v 0.131956 0.011905 -0.116858
v 0.131956 0.092721 -0.036042
v 0.140810 0.052313 -0.027188
v 0.159392 0.052313 -0.076450
v 0.131956 0.011905 -0.036042
v 0.140810 0.003051 -0.076450
v 0.159392 0.052313 -0.076450
v 0.159392 0.052313 -0.076450
v 0.140810 0.003051 -0.076450
v 0.131956 0.011905 -0.116858
v 0.159392 0.052313 -0.076450
v 0.140810 0.052313 -0.125712
v 0.131956 0.092721 -0.116858
v 0.051140 0.011905 -0.116858
v 0.042286 0.052313 -0.125712
v 0.091548 0.052313 -0.144294
v 0.051140 0.092721 -0.116858
v 0.091548 0.101575 -0.125712
v 0.091548 0.052313 -0.144294
v 0.091548 0.052313 -0.144294
v 0.091548 0.101575 -0.125712
v 0.131956 0.092721 -0.116858
v 0.091548 0.052313 -0.144294
v 0.140810 0.052313 -0.125712
v 0.131956 0.011905 -0.116858
v 0.131956 0.092721 -0.036042
v 0.140810 0.101575 -0.076450
v 0.091548 0.120157 -0.076450
v 0.091548 0.120157 -0.076450
v 0.140810 0.101575 -0.076450
v 0.131956 0.092721 -0.116858
v 0.091548 0.120157 -0.076450
v 0.091548 0.101575 -0.125712
v 0.051140 0.092721 -0.116858
vt 0.740093 0.577835
vt 0.661025 0.530766
vt 0.599036 0.604080
vt 0.222919 0.734513
vt 0.145825 0.831780
vt 0.315482 0.822602
vt 0.145825 0.831780
vt 0.241711 0.907864
vt 0.315482 0.822602
vt 0.379061 0.465706
vt 0.466478 0.376481
vt 0.350105 0.379164
vt 0.474513 0.629636
vt 0.520352 0.659936
vt 0.404245 0.652042
vt 0.434513 0.591014
vt 0.474513 0.629636
vt 0.404245 0.652042
vt 0.346106 0.368259
vt 0.188048 0.402304
vt 0.319736 0.429460
vt 0.393006 0.517634
vt 0.434513 0.591014
vt 0.329353 0.517207
vt 0.188048 0.402304
vt 0.064243 0.490569
vt 0.205074 0.462906
vt 0.373960 0.046613
vt 0.421489 0.116088
vt 0.296551 0.039785
vt 0.628333 0.481155
vt 0.619951 0.423073
vt 0.550132 0.456873
vt 0.277399 0.623270
vt 0.222919 0.734513
vt 0.325353 0.682395
vt 0.661025 0.530766
vt 0.628333 0.481155
vt 0.599036 0.604080
vt 0.241711 0.907864
vt 0.145825 0.831780
vt 0.160352 0.998000
vt 0.696561 0.790384
vt 0.588974 0.808967
vt 0.688927 0.663939
vt 0.820485 0.243373
vt 0.961583 0.313141
vt 0.856764 0.381585
vt 0.145825 0.831780
vt 0.135505 0.678956
vt 0.014608 0.801047
vt 0.741459 0.203487
vt 0.820485 0.243373
vt 0.653808 0.307915
vt 0.135505 0.678956
vt 0.049684 0.556762
vt 0.002000 0.660560
vt 0.708013 0.158277
vt 0.741459 0.203487
vt 0.638096 0.135974
vt 0.859399 0.461316
vt 0.838390 0.409673
vt 0.847645 0.482293
vt 0.972721 0.717285
vt 0.853881 0.810023
vt 0.993582 0.728203
vt 0.914795 0.456686
vt 0.859399 0.461316
vt 0.966520 0.588842
vt 0.968842 0.445807
vt 0.914795 0.456686
vt 0.966520 0.588842
vt 0.916033 0.902047
vt 0.971546 0.907004
vt 0.865649 0.998000
vt 0.452565 0.268893
vt 0.350105 0.244719
vt 0.411747 0.151750
vt 0.532117 0.172516
vt 0.452565 0.268893
vt 0.411747 0.151750
vt 0.102550 0.120088
vt 0.198243 0.159979
vt 0.223747 0.146800
vt 0.634096 0.196980
vt 0.532117 0.172516
vt 0.616680 0.149141
vt 0.281874 0.222321
vt 0.346106 0.368259
vt 0.331613 0.214127
vt 0.178721 0.024773
vt 0.224942 0.116088
vt 0.076843 0.109714
vt 0.466478 0.376481
vt 0.379061 0.465706
vt 0.528727 0.492979
vt 0.588974 0.808967
vt 0.506076 0.874302
vt 0.494703 0.723759
vt 0.002000 0.073191
vt 0.072305 0.116088
vt 0.072843 0.019941
vt 0.875649 0.195584
vt 0.904752 0.131226
vt 0.975973 0.191504
vt 0.772944 0.896848
vt 0.696561 0.790384
vt 0.843230 0.827445
vt 0.820485 0.243373
vt 0.875649 0.195584
vt 0.961583 0.313141
vt 0.452565 0.268893
vt 0.416773 0.340226
vt 0.350105 0.244719
vt 0.933025 0.834283
vt 0.916033 0.902047
vt 0.847227 0.813989
vt 0.904752 0.131226
vt 0.875649 0.195584
vt 0.835230 0.161879
vt 0.933025 0.834283
vt 0.997437 0.858281
vt 0.971546 0.907004
vt 0.820485 0.243373
vt 0.789188 0.182542
vt 0.835230 0.161879
vt 0.765866 0.119704
vt 0.837911 0.109455
vt 0.835230 0.161879
vt 0.765866 0.119704
vt 0.789188 0.182542
vt 0.741459 0.203487
vt 0.859399 0.461316
vt 0.914795 0.456686
vt 0.905311 0.389468
vt 0.968842 0.445807
vt 0.975105 0.390415
vt 0.905311 0.389468
vt 0.835230 0.161879
vt 0.837911 0.109455
vt 0.904752 0.131226
vt 0.971546 0.907004
vt 0.916033 0.902047
vt 0.933025 0.834283
vt 0.741459 0.203487
vt 0.789188 0.182542
vt 0.820485 0.243373
vt 0.835230 0.161879
vt 0.875649 0.195584
vt 0.820485 0.243373
vt 0.835230 0.161879
vt 0.789188 0.182542
vt 0.765866 0.119704
vt 0.741459 0.203487
vt 0.708013 0.158277
vt 0.765866 0.119704
vt 0.905311 0.389468
vt 0.838390 0.409673
vt 0.859399 0.461316
vt 0.905311 0.389468
vt 0.914795 0.456686
vt 0.968842 0.445807
vt 0.681430 0.988648
vt 0.694967 0.890224
vt 0.772944 0.896848
vt 0.521200 0.372481
vt 0.416773 0.340226
vt 0.452565 0.268893
vt 0.610041 0.277513
vt 0.625461 0.359530
vt 0.521200 0.372481
vt 0.618766 0.883127
vt 0.694967 0.890224
vt 0.681430 0.988648
vt 0.618766 0.883127
vt 0.588974 0.808967
vt 0.696561 0.790384
vt 0.506076 0.874302
vt 0.588974 0.808967
vt 0.618766 0.883127
vt 0.506076 0.874302
vt 0.577417 0.950354
vt 0.511930 0.998000
vt 0.532117 0.172516
vt 0.530687 0.273079
vt 0.452565 0.268893
vt 0.610041 0.277513
vt 0.530687 0.273079
vt 0.532117 0.172516
vt 0.772944 0.896848
vt 0.785568 0.978907
vt 0.681430 0.988648
vt 0.452565 0.268893
vt 0.530687 0.273079
vt 0.521200 0.372481
vt 0.521200 0.372481
vt 0.530687 0.273079
vt 0.610041 0.277513
vt 0.681430 0.988648
vt 0.577417 0.950354
vt 0.618766 0.883127
vt 0.772944 0.896848
vt 0.694967 0.890224
vt 0.696561 0.790384
vt 0.696561 0.790384
vt 0.694967 0.890224
vt 0.618766 0.883127
vt 0.618766 0.883127
vt 0.577417 0.950354
vt 0.506076 0.874302
vt 0.292580 0.071367
vt 0.224942 0.116088
vt 0.178721 0.024773
vt 0.532117 0.172516
vt 0.634096 0.196980
vt 0.610041 0.277513
vt 0.145825 0.831780
vt 0.222919 0.734513
vt 0.135505 0.678956
vt 0.864673 0.612851
vt 0.847227 0.711193
vt 0.972721 0.717285
vt 0.277399 0.623270
vt 0.305805 0.505233
vt 0.210842 0.494569
vt 0.277399 0.623270
vt 0.164684 0.581138
vt 0.135505 0.678956
vt 0.188048 0.402304
vt 0.086081 0.369522
vt 0.064243 0.490569
vt 0.137085 0.260728
vt 0.198243 0.159979
vt 0.102550 0.120088
vt 0.137085 0.260728
vt 0.034407 0.201482
vt 0.002000 0.302465
vt 0.188048 0.402304
vt 0.239819 0.314269
vt 0.137085 0.260728
vt 0.281874 0.222321
vt 0.198243 0.159979
vt 0.137085 0.260728
vt 0.135505 0.678956
vt 0.164684 0.581138
vt 0.049684 0.556762
vt 0.972721 0.717285
vt 0.961877 0.592842
vt 0.864673 0.612851
vt 0.972721 0.717285
vt 0.847227 0.711193
vt 0.853881 0.810023
vt 0.210842 0.494569
vt 0.164684 0.581138
vt 0.277399 0.623270
vt 0.135505 0.678956
vt 0.222919 0.734513
vt 0.277399 0.623270
vt 0.281874 0.222321
vt 0.239819 0.314269
vt 0.346106 0.368259
vt 0.346106 0.368259
vt 0.239819 0.314269
vt 0.188048 0.402304
vt 0.102550 0.120088
vt 0.034407 0.201482
vt 0.137085 0.260728
vt 0.002000 0.302465
vt 0.086081 0.369522
vt 0.137085 0.260728
vt 0.137085 0.260728
vt 0.086081 0.369522
vt 0.188048 0.402304
vt 0.137085 0.260728
vt 0.239819 0.314269
vt 0.281874 0.222321
vt 0.740093 0.577835
vt 0.711211 0.515002
vt 0.661025 0.530766
vt 0.830132 0.566577
vt 0.792520 0.528881
vt 0.740093 0.577835
vt 0.756964 0.492855
vt 0.711211 0.515002
vt 0.740093 0.577835
vt 0.691791 0.453756
vt 0.672392 0.391773
vt 0.619951 0.423073
vt 0.691791 0.453756
vt 0.628333 0.481155
vt 0.661025 0.530766
vt 0.756964 0.492855
vt 0.761309 0.438998
vt 0.691791 0.453756
vt 0.733220 0.385585
vt 0.672392 0.391773
vt 0.691791 0.453756
vt 0.834390 0.471556
vt 0.792520 0.528881
vt 0.830132 0.566577
vt 0.517487 0.576158
vt 0.474513 0.629636
vt 0.434513 0.591014
vt 0.493908 0.497000
vt 0.546160 0.513602
vt 0.517487 0.576158
vt 0.756964 0.492855
vt 0.792520 0.528881
vt 0.834390 0.471556
vt 0.483476 0.061047
vt 0.490437 0.115740
vt 0.421489 0.116088
vt 0.740093 0.577835
vt 0.792520 0.528881
vt 0.756964 0.492855
vt 0.619951 0.423073
vt 0.628333 0.481155
vt 0.691791 0.453756
vt 0.661025 0.530766
vt 0.711211 0.515002
vt 0.691791 0.453756
vt 0.691791 0.453756
vt 0.711211 0.515002
vt 0.756964 0.492855
vt 0.691791 0.453756
vt 0.761309 0.438998
vt 0.733220 0.385585
vt 0.520352 0.659936
vt 0.474513 0.629636
vt 0.517487 0.576158
vt 0.434513 0.591014
vt 0.458602 0.539933
vt 0.517487 0.576158
vt 0.517487 0.576158
vt 0.458602 0.539933
vt 0.493908 0.497000
vt 0.834390 0.471556
vt 0.761309 0.438998
vt 0.756964 0.492855
vt 0.373960 0.046613
vt 0.429827 0.047340
vt 0.421489 0.116088
vt 0.421489 0.116088
vt 0.429827 0.047340
vt 0.483476 0.061047
vt 0.393006 0.517634
vt 0.458602 0.539933
vt 0.434513 0.591014
vt 0.830132 0.566577
vt 0.740093 0.577835
vt 0.832461 0.659936
vt 0.198243 0.159979
vt 0.281874 0.222321
vt 0.223747 0.146800
vn 0.4920 -0.8653 0.0956
vn 0.3510 -0.9305 0.1046
vn -0.1553 -0.9243 -0.3487
vn -0.6449 -0.2697 -0.7151
vn -0.6730 -0.2960 -0.6778
vn -0.3339 0.2710 -0.9028
vn -0.3085 0.7259 -0.6148
vn 0.3248 0.5993 -0.7317
vn 0.8827 0.4433 -0.1560
vn 0.4466 0.8817 0.1521
vn 0.9636 0.2379 0.1220
vn 0.8330 -0.3142 0.4554
vn 0.8280 -0.2870 0.4817
vn 0.1070 -0.9303 -0.3509
vn 0.0585 -0.9956 0.0733
vn 0.3782 -0.8966 0.2305
vn 0.6001 0.0583 0.7978
vn 0.9292 -0.1276 -0.3468
vn 0.6746 0.2960 0.6762
vn 0.1973 0.6781 0.7080
vn 0.2957 0.7064 0.6431
vn -0.2946 0.6027 0.7416
vn -0.8898 0.3642 0.2748
vn -0.4441 0.3793 0.8117
vn -0.4804 0.8701 0.1104
vn -0.9469 0.2003 0.2514
vn -0.7123 0.6567 -0.2477
vn -0.1382 0.4580 -0.8781
vn -0.2044 0.3455 -0.9159
vn 0.0045 -0.3529 -0.9356
vn -0.6003 -0.2945 0.7436
vn -0.6374 -0.2404 0.7321
vn -0.3682 -0.8979 0.2414
vn -0.3423 -0.9073 0.2442
vn -0.4991 0.2884 0.8172
vn -0.4786 0.1806 0.8592
vn -0.9004 -0.3397 0.2717
vn -0.9004 0.2717 0.3397
vn -0.2717 -0.9004 0.3397
vn -0.3397 -0.2717 0.9004
vn 0.2717 -0.3397 0.9004
vn 0.2717 0.3397 0.9004
vn -0.3397 0.2717 0.9004
vn -0.9004 -0.2717 0.3397
vn -0.9004 0.3397 0.2717
vn 0.2717 -0.9004 0.3397
vn -0.3397 -0.9004 0.2717
vn -0.2717 -0.3397 0.9004
vn 0.3397 -0.2717 0.9004
vn 0.3397 0.2717 0.9004
vn -0.2717 0.3397 0.9004
vn -0.9004 0.2717 -0.3397
vn -0.9004 -0.3397 -0.2717
vn -0.2717 -0.9004 -0.3397
vn -0.2717 -0.3397 -0.9004
vn -0.3397 0.2717 -0.9004
vn -0.3397 0.9004 0.2717
vn -0.3397 0.9004 -0.2717
vn -0.9004 0.3397 -0.2717
vn -0.9004 -0.2717 -0.3397
vn -0.3397 -0.9004 -0.2717
vn -0.3397 -0.2717 -0.9004
vn -0.2717 0.3397 -0.9004
vn -0.2717 0.9004 -0.3397
vn 0.3397 -0.9004 0.2717
vn 0.9004 0.3397 0.2717
vn 0.9004 -0.2717 0.3397
vn 0.9004 0.3397 -0.2717
vn 0.2717 0.9004 0.3397
vn 0.2717 0.9004 -0.3397
vn 0.9004 0.2717 0.3397
vn 0.9004 -0.3397 0.2717
vn 0.2717 0.3397 -0.9004
vn -0.2717 0.9004 0.3397
vn 0.3397 0.9004 0.2717
vn 0.3397 0.9004 -0.2717
vn 0.3397 -0.9004 -0.2717
vn 0.9004 -0.2717 -0.3397
vn 0.3397 0.2717 -0.9004
vn 0.2717 -0.3397 -0.9004
vn 0.2717 -0.9004 -0.3397
vn 0.9004 -0.3397 -0.2717
vn 0.9004 0.2717 -0.3397
vn 0.3397 -0.2717 -0.9004
vn -0.1594 -0.8835 -0.4405
vn -0.8104 0.5096 -0.2892
usemtl Material_0
s off
f 1/1/1 2/2/1 3/3/1
f 4/4/2 5/5/2 6/6/2
f 7/7/3 8/8/3 9/9/3
f 13/10/4 14/11/4 15/12/4
f 16/13/5 17/14/5 18/15/5
f 19/16/6 20/17/6 21/18/6
f 22/19/7 23/20/7 24/21/7
f 25/22/8 26/23/8 27/24/8
f 28/25/9 29/26/9 30/27/9
f 31/28/10 32/29/10 33/30/10
f 34/31/11 35/32/11 36/33/11
f 37/34/12 38/35/12 39/36/12
f 40/37/13 41/38/13 42/39/13
f 43/40/14 44/41/14 45/42/14
f 46/43/14 47/44/14 48/45/14
f 49/46/15 50/47/15 51/48/15
f 52/49/16 53/50/16 54/51/16
f 55/52/16 56/53/16 57/54/16
f 58/55/17 59/56/17 60/57/17
f 61/58/18 62/59/18 63/60/18
f 64/61/19 65/62/19 66/63/19
f 67/64/20 68/65/20 69/66/20
f 70/67/21 71/68/21 72/69/21
f 73/70/22 74/71/22 75/72/22
f 76/73/23 77/74/23 78/75/23
f 79/76/24 80/77/24 81/78/24
f 82/79/25 83/80/25 84/81/25
f 85/82/26 86/83/26 87/84/26
f 91/85/27 92/86/27 93/87/27
f 94/88/28 95/89/28 96/90/28
f 97/91/29 98/92/29 99/93/29
f 100/94/30 101/95/30 102/96/30
f 103/97/30 104/98/30 105/99/30
f 106/100/31 107/101/31 108/102/31
f 109/103/32 110/104/32 111/105/32
f 112/106/33 113/107/33 114/108/33
f 115/109/34 116/110/34 117/111/34
f 118/112/35 119/113/35 120/114/35
f 121/115/36 122/116/36 123/117/36
f 124/118/37 125/119/37 126/120/37
f 127/121/38 128/122/38 129/123/38
f 130/124/39 131/125/39 132/126/39
f 133/127/40 134/128/40 135/129/40
f 136/130/41 137/131/41 138/132/41
f 139/133/42 140/134/42 141/135/42
f 142/136/43 143/137/43 144/138/43
f 145/139/44 146/140/44 147/141/44
f 148/142/45 149/143/45 150/144/45
f 151/145/46 152/146/46 153/147/46
f 154/148/47 155/149/47 156/150/47
f 157/151/48 158/152/48 159/153/48
f 160/154/49 161/155/49 162/156/49
f 163/157/50 164/158/50 165/159/50
f 166/160/51 167/161/51 168/162/51
f 169/163/37 170/164/37 171/165/37
f 172/166/38 173/167/38 174/168/38
f 175/169/52 176/170/52 177/171/52
f 178/172/53 179/173/53 180/174/53
f 181/175/54 182/176/54 183/177/54
f 184/178/55 185/179/55 186/180/55
f 187/181/56 188/182/56 189/183/56
f 190/184/57 191/185/57 192/186/57
f 193/187/58 194/188/58 195/189/58
f 196/190/44 197/191/44 198/192/44
f 199/193/45 200/194/45 201/195/45
f 202/196/59 203/197/59 204/198/59
f 205/199/60 206/200/60 207/201/60
f 208/202/47 209/203/47 210/204/47
f 211/205/61 212/206/61 213/207/61
f 214/208/62 215/209/62 216/210/62
f 217/211/63 218/212/63 219/213/63
f 220/214/64 221/215/64 222/216/64
f 223/217/65 224/218/65 225/219/65
f 226/220/42 227/221/42 228/222/42
f 229/223/66 230/224/66 231/225/66
f 232/226/67 233/227/67 234/228/67
f 235/229/68 236/230/68 237/231/68
f 238/232/57 239/233/57 240/234/57
f 241/235/69 242/236/69 243/237/69
f 244/238/70 245/239/70 246/240/70
f 247/241/58 248/242/58 249/243/58
f 250/244/49 251/245/49 252/246/49
f 253/247/50 254/248/50 255/249/50
f 256/250/51 257/251/51 258/252/51
f 259/253/71 260/254/71 261/255/71
f 262/256/72 263/257/72 264/258/72
f 265/259/63 266/260/63 267/261/63
f 268/262/73 269/263/73 270/264/73
f 271/265/74 272/266/74 273/267/74
f 274/268/75 275/269/75 276/270/75
f 277/271/76 278/272/76 279/273/76
f 280/274/64 281/275/64 282/276/64
f 283/277/65 284/278/65 285/279/65
f 286/280/54 287/281/54 288/282/54
f 289/283/77 290/284/77 291/285/77
f 292/286/66 293/287/66 294/288/66
f 295/289/67 296/290/67 297/291/67
f 298/292/78 299/293/78 300/294/78
f 301/295/68 302/296/68 303/297/68
f 304/298/55 305/299/55 306/300/55
f 307/301/56 308/302/56 309/303/56
f 310/304/79 311/305/79 312/306/79
f 313/307/80 314/308/80 315/309/80
f 316/310/70 317/311/70 318/312/70
f 319/313/81 320/314/81 321/315/81
f 322/316/71 323/317/71 324/318/71
f 325/319/72 326/320/72 327/321/72
f 328/322/82 329/323/82 330/324/82
f 331/325/83 332/326/83 333/327/83
f 334/328/62 335/329/62 336/330/62
f 337/331/63 338/332/63 339/333/63
f 340/334/73 341/335/73 342/336/73
f 343/337/84 344/338/84 345/339/84
f 346/340/75 347/341/75 348/342/75
f 349/343/76 350/344/76 351/345/76
f 352/346/64 353/347/64 354/348/64
s 1
f 10/349/85 11/350/85 12/351/85
f 88/352/86 89/353/86 90/354/86
